<svg width="8" height="5" viewBox="0 0 8 5" fill="none" xmlns="http://www.w3.org/2000/svg">
<path d="M7.23151 0.0591507C7.26906 0.0212939 7.32017 -2.97164e-08 7.37349 -2.73857e-08C7.42681 -2.50551e-08 7.47792 0.0212939 7.51547 0.0591507L7.9394 0.483086C7.97807 0.519374 8 0.570039 8 0.623065C8 0.676091 7.97807 0.726756 7.9394 0.763044L4.26396 4.43849C4.20776 4.49475 4.13152 4.5264 4.05199 4.52647L3.94801 4.52647C3.86848 4.5264 3.79224 4.49475 3.73604 4.43849L0.0605983 0.763043C0.0219333 0.726756 -2.95529e-08 0.676091 -2.7235e-08 0.623065C-2.49172e-08 0.570038 0.0219333 0.519374 0.0605984 0.483086L0.484534 0.0591504C0.522081 0.0212936 0.573193 -3.24636e-07 0.626513 -3.22305e-07C0.679832 -3.19975e-07 0.730943 0.0212936 0.768491 0.0591504L4 3.29066L7.23151 0.0591507Z" fill="black"/>
</svg>
